<svg width="200" height="60" viewBox="0 0 200 60" fill="none" xmlns="http://www.w3.org/2000/svg">
  <defs>
    <linearGradient id="logoGradient" x1="0%" y1="0%" x2="100%" y2="0%">
      <stop offset="0%" style="stop-color:#E91E63;stop-opacity:1" />
      <stop offset="50%" style="stop-color:#F06292;stop-opacity:1" />
      <stop offset="100%" style="stop-color:#FF80AB;stop-opacity:1" />
    </linearGradient>
    <filter id="shadow" x="-20%" y="-20%" width="140%" height="140%">
      <feDropShadow dx="2" dy="4" stdDeviation="3" flood-opacity="0.3"/>
    </filter>
  </defs>
  
  <!-- Shoe icon -->
  <g filter="url(#shadow)">
    <path d="M25 35C25 35 22 30 25 28C28 26 32 28 35 30L38 32C42 35 48 35 52 33C56 31 60 28 60 28L58 40C58 40 45 42 35 42L25 42Z" fill="url(#logoGradient)"/>
    <path d="M35 30C37 32 42 33 46 31C50 29 54 26 54 26L52 38C52 38 43 39 35 38L35 30Z" fill="white" opacity="0.3"/>
  </g>
  
  <!-- Heel -->
  <rect x="58" y="38" width="3" height="8" rx="1" fill="url(#logoGradient)"/>
  
  <!-- Brand text -->
  <g transform="translate(75, 25)">
    <text font-family="Poppins, sans-serif" font-size="16" font-weight="800" fill="url(#logoGradient)">
      <tspan>Shoes</tspan>
      <tspan font-weight="400" fill="#424242">Feminine</tspan>
    </text>
    <text y="18" font-family="Poppins, sans-serif" font-size="8" font-weight="300" fill="#757575" letter-spacing="2px">
      PREMIUM FOOTWEAR
    </text>
  </g>
  
  <!-- Decorative elements -->
  <circle cx="15" cy="20" r="2" fill="#E91E63" opacity="0.6"/>
  <circle cx="185" cy="40" r="1.5" fill="#F06292" opacity="0.4"/>
  <circle cx="170" cy="25" r="1" fill="#FF80AB" opacity="0.8"/>
</svg>